<svg width="141" height="161" viewBox="0 0 141 161" fill="none" xmlns="http://www.w3.org/2000/svg">
<path d="M60.2331 0C49.1903 0 40.1554 9.03496 40.1554 20.0777H20.0777C9.03496 20.0777 0 29.1127 0 40.1554H140.544C140.544 29.1127 131.509 20.0777 120.466 20.0777H100.388C100.388 9.03496 91.3535 0 80.3108 0H60.2331ZM20.0777 60.2331V156.807C20.0777 159.015 21.6839 160.622 23.8925 160.622H116.852C119.061 160.622 120.667 159.015 120.667 156.807V60.2331H100.589V130.505C100.589 136.127 96.1721 140.544 90.5504 140.544C84.9286 140.544 80.5115 136.127 80.5115 130.505V60.2331H60.4339V130.505C60.4339 136.127 56.0168 140.544 50.395 140.544C44.7733 140.544 40.3562 136.127 40.3562 130.505V60.2331H20.2785H20.0777Z" fill="white"/>
</svg>
